<svg xmlns="http://www.w3.org/2000/svg" viewBox="0 0 32 32" width="32" height="32" preserveAspectRatio="xMidYMid meet" style="width: 100%; height: 100%; transform: translate3d(0px, 0px, 0px);"><defs><clipPath id="__lottie_element_7"><rect width="32" height="32" x="0" y="0"/></clipPath></defs><g clip-path="url(#__lottie_element_7)"><g transform="matrix(1,0,0,1,4,4)" opacity="1" style="display: block;"><g opacity="1" transform="matrix(1,0,0,1,0,0)"><g opacity="1" transform="matrix(1,0,0,1,18.399999618530273,18.399999618530273)"><path stroke-linecap="round" stroke-linejoin="round" fill-opacity="0" stroke="rgb(0,0,0)" stroke-opacity="1" stroke-width="2" d=" M2.5999999046325684,2.5999999046325684 C2.5999999046325684,2.5999999046325684 -2.5999999046325684,-2.5999999046325684 -2.5999999046325684,-2.5999999046325684"/></g><g opacity="1" transform="matrix(0.7071067690849304,0.7071067690849304,-0.7071067690849304,0.7071067690849304,10.5,10.5)"><path stroke-linecap="round" stroke-linejoin="round" fill-opacity="0" stroke="rgb(0,0,0)" stroke-opacity="1" stroke-width="2" d=" M0,-7.5 C4.14300012588501,-7.5 7.5,-4.142000198364258 7.5,0 C7.5,4.14300012588501 4.14300012588501,7.5 0,7.5 C-4.142000198364258,7.5 -7.5,4.14300012588501 -7.5,0 C-7.5,-4.142000198364258 -4.142000198364258,-7.5 0,-7.5z"/></g></g><g opacity="0" transform="matrix(1,0,0,1,0,0)"><g opacity="1" transform="matrix(0,1,-1,0,12,12)"><path stroke-linecap="round" stroke-linejoin="round" fill-opacity="0" stroke="rgb(0,0,0)" stroke-opacity="1" stroke-width="2" d=" M6,-6 C6,-6 -6,6 -6,6"/></g><g opacity="1" transform="matrix(1,0,0,1,12,12)"><path stroke-linecap="round" stroke-linejoin="round" fill-opacity="0" stroke="rgb(0,0,0)" stroke-opacity="1" stroke-width="2" d=" M-6,-6 C-6,-6 6,6 6,6"/></g></g></g></g></svg>